<?xml version="1.0" encoding="UTF-8"?>
<!DOCTYPE svg PUBLIC "-//W3C//DTD SVG 1.1//EN" "http://www.w3.org/Graphics/SVG/1.1/DTD/svg11.dtd">
<svg xmlns="http://www.w3.org/2000/svg" version="1.1"  width="600px" height="600px" style="shape-rendering:geometricPrecision; text-rendering:geometricPrecision; image-rendering:optimizeQuality; fill-rule:evenodd; clip-rule:evenodd" xmlns:xlink="http://www.w3.org/1999/xlink">
<g><path style="opacity:0.958" fill="#753D6E" d="M 142.5,5 C 147.167,5 151.833,5 156.5,5C 156.5,45.8333 156.5,92.1667 156.5,138.5C 251.5,138.5 346.5,138.5 441.5,138.5C 441.5,92.1667 441.5,45.8333 441.5,5C 446.833,5 452.167,5 457.5,5C 457.5,45.8333 457.5,92.1667 457.5,138.5C 504.833,138.5 552.167,138.5 599.5,138.5C 599.5,143.167 599.5,147.833 599.5,152.5C 552.167,152.5 504.833,152.5 457.5,152.5C 457.5,247.833 457.5,343.167 457.5,438.5C 504.833,438.5 552.167,438.5 599.5,438.5C 599.5,443.167 599.5,447.833 599.5,452.5C 552.167,452.5 504.833,452.5 457.5,452.5C 457.5,501.5 457.5,550.5 457.5,599.5C 452.167,599.5 446.833,599.5 441.5,599.5C 441.5,550.5 441.5,501.5 441.5,452.5C 346.5,452.5 251.5,452.5 156.5,452.5C 156.5,501.5 156.5,550.5 156.5,599.5C 151.833,599.5 147.167,599.5 142.5,599.5C 142.5,550.5 142.5,501.5 142.5,452.5C 94.8333,452.5 47.1667,452.5 5,452.5C 5,447.833 5,443.167 5,438.5C 47.1667,438.5 94.8333,438.5 142.5,438.5C 142.5,343.167 142.5,247.833 142.5,152.5C 94.8333,152.5 47.1667,152.5 5,152.5C 5,147.833 5,143.167 5,138.5C 47.1667,138.5 94.8333,138.5 142.5,138.5C 142.5,92.1667 142.5,45.8333 142.5,5 Z M 156.5,152.5 C 251.5,152.5 346.5,152.5 441.5,152.5C 441.5,247.833 441.5,343.167 441.5,438.5C 346.5,438.5 251.5,438.5 156.5,438.5C 156.5,343.167 156.5,247.833 156.5,152.5 Z"/></g>
</svg>
