<svg width="421" height="421" fill="none" xmlns="http://www.w3.org/2000/svg">
    <path d="M21.952.972C14.917 3.28 10.074 7.433 6.49 14.235c-1.73 3.282-1.928 4.377-1.929 10.674 0 6.313.199 7.41 1.985 10.933 1.651 3.257 15.98 17.91 85.076 87.004l83.09 83.088-83.081 83.15c-67.59 67.645-83.454 83.87-85.076 87.009-1.802 3.489-1.992 4.532-1.986 10.876.01 8.439 1.432 12.02 6.981 17.569 5.468 5.468 9.163 6.965 17.218 6.979 12.095.019 3.835 7.336 98.233-87.02l83.147-83.111 83.499 83.388c67.392 67.303 84.176 83.711 87.007 85.06 2.926 1.394 4.615 1.674 10.174 1.683 5.772.009 7.203-.241 10.663-1.863 14.446-6.772 18.92-24.844 9.319-37.641-1.646-2.194-39.494-40.456-84.107-85.027l-81.114-81.039 83.055-83.151c91.084-91.19 86.303-85.952 87.2-95.557C417.637 8.04 397.35-5.858 380.054 2.72c-3.821 1.895-13.729 11.559-87.103 84.957l-82.791 82.819-83.153-83.053C34.191-5.262 40.957.833 30.234.278c-3.36-.174-6.416.082-8.282.694"
          fill-rule="evenodd" fill="#000"/>
</svg>
