<svg width="421" height="421" fill="none" xmlns="http://www.w3.org/2000/svg">
    <path d="M23.506 1.661C15.797 3.636 9.938 8.346 6.512 15.322c-1.718 3.499-1.951 4.77-1.951 10.64 0 11.939-7.097 3.932 86.913 98.058l82.871 82.972-82.871 82.972C-2.537 384.09 4.56 376.083 4.561 388.022c.001 7.998 1.296 11.402 6.427 16.887 7.592 8.117 18.333 10.179 28.89 5.547 2.651-1.164 19.134-17.291 86.595-84.727l83.32-83.289 82.975 82.896c65.66 65.598 83.716 83.265 86.527 84.664 13.284 6.613 28.326 1.376 34.561-12.032 1.55-3.335 1.848-4.952 1.834-9.946-.032-11.235 7.079-3.267-86.883-97.357l-83.561-83.673 83.561-83.674c93.954-94.082 86.837-86.107 86.898-97.371.029-5.374-.2-6.452-2.269-10.655-6.028-12.244-20.132-17.524-32.431-12.141-4.348 1.904-8.446 5.876-87.887 85.192l-83.325 83.195-83.671-83.585C47.415 9.327 42.221 4.283 38.579 2.956 33.338 1.046 27.773.568 23.506 1.661"
          fill-rule="evenodd" fill="#000"/>
</svg>
