<svg width="422" height="421" fill="none" xmlns="http://www.w3.org/2000/svg">
    <path d="M21.807 2.58c-3.929 1.374-8.375 4.391-10.937 7.421-4.64 5.487-6.962 14.761-5.324 21.266.919 3.652 183.542 369.446 186.198 372.955 4.108 5.429 11.618 8.835 19.461 8.826 4.884-.005 6.046-.286 10.688-2.58 3.151-1.558 6.125-3.654 7.532-5.31 2.827-3.33 185.848-369.2 187.026-373.877 1.918-7.618-1.44-18.096-7.512-23.441-4.957-4.364-8.872-5.919-15.776-6.267-7.749-.391-12.434 1.259-17.986 6.333-3.898 3.562-4.488 4.713-83.875 163.475-43.973 87.938-80.109 159.887-80.302 159.887-.193 0-36.329-71.949-80.302-159.887C51.311 12.619 50.721 11.468 46.823 7.906c-5.052-4.617-9.967-6.511-16.782-6.466-2.79.019-6.495.532-8.234 1.14"
          fill-rule="evenodd" fill="#000"/>
</svg>
