<svg width="448" height="253" fill="none" xmlns="http://www.w3.org/2000/svg">
    <path d="M22.363 1.017c-4.655 1.256-8.25 3.615-12.198 8.006-4.101 4.561-5.986 9.791-5.897 16.364.078 5.813 1.547 10.154 5.016 14.826C10.7 42.12 56.314 88.07 110.649 142.325c79.81 79.692 99.508 98.987 102.524 100.427 3.124 1.49 4.892 1.781 10.827 1.781s7.703-.291 10.827-1.781c3.016-1.44 22.714-20.735 102.524-100.427C391.686 88.07 437.3 42.12 438.716 40.213c3.469-4.672 4.938-9.013 5.016-14.826.092-6.829-1.792-11.851-6.293-16.776-5.392-5.899-10.529-8.22-18.182-8.214-11.471.009-3.249-7.37-104.725 93.978l-90.535 90.42-90.159-90.036C84.251 45.24 42.814 4.195 41.755 3.549 38.867 1.786 32.229-.007 28.798.05c-1.671.028-4.567.463-6.435.967"
          fill-rule="evenodd" fill="#000"/>
</svg>
