<svg width="422" height="422" fill="none" xmlns="http://www.w3.org/2000/svg">
    <path d="M386.482 1.673C380.86 3.128 16.628 185.511 12.965 188.706c-1.858 1.62-3.978 4.526-5.378 7.37-2.096 4.257-2.312 5.289-2.312 11.041 0 5.535.253 6.86 1.982 10.381 4.187 8.525-8.824 1.615 191.511 101.725 100.921 50.432 184.72 92.131 186.22 92.664 8.748 3.112 21.053-.923 26.894-8.82 5.412-7.317 6.464-16.938 2.755-25.203-4.127-9.194 8.195-2.547-168.664-90.993L86.169 206.954l159.869-79.94C371.679 64.19 406.577 46.458 409.031 44.196c1.773-1.635 4.11-4.885 5.408-7.522 2.038-4.14 2.286-5.294 2.286-10.651 0-5.368-.246-6.507-2.307-10.694C409.221 4.773 397.205-1.1 386.482 1.673"
          fill-rule="evenodd" fill="#000"/>
</svg>
