<svg width="253" height="448" fill="none" xmlns="http://www.w3.org/2000/svg">
    <path d="M218.494.647c-1.468.318-4.125 1.282-5.903 2.14-3.197 1.544-4.372 2.699-103.082 101.325C51.207 162.365 9.022 204.833 8.124 206.176c-.846 1.266-2.1 3.922-2.786 5.904-2.409 6.949-1.383 15.229 2.642 21.313 1.112 1.68 35.206 36.032 101.526 102.294 98.04 97.954 99.909 99.792 103.014 101.287 7.788 3.752 15.91 3.679 23.324-.21 3.729-1.955 8.232-6.554 10.153-10.367 2.317-4.603 2.924-7.485 2.682-12.737-.229-4.952-1.265-8.403-3.695-12.309-.915-1.47-32.255-33.126-90.931-91.85l-89.535-89.606 88.993-88.969c66.228-66.21 89.514-89.741 91.025-91.982 2.845-4.219 3.869-7.395 4.126-12.801.362-7.614-1.878-13.422-7.241-18.777-6.113-6.104-14.473-8.554-22.927-6.719"
          fill-rule="evenodd" fill="#000"/>
</svg>
