<svg width="420" height="421" fill="none" xmlns="http://www.w3.org/2000/svg">
    <path d="M23.368.664C16.473 2.31 9.845 7.767 6.523 14.532 4.802 18.037 4.55 19.356 4.55 24.865c0 5.724.215 6.751 2.301 10.988 2.545 5.169 6.625 9.235 11.898 11.856l3.301 1.641h375.9l4.053-2.052c10.158-5.144 15.766-17.274 13.107-28.355-1.214-5.063-5.555-11.261-9.987-14.262-7.505-5.08 9.09-4.689-195.425-4.609-101.281.039-185.13.306-186.33.592m1.587 180.664c-7.948 1.348-14.917 6.816-18.543 14.549-1.604 3.422-1.855 4.846-1.808 10.273.041 4.863.398 7.065 1.562 9.654 2.223 4.942 7.776 10.454 12.928 12.834l4.356 2.012 184.758.181c200.844.198 189.215.41 195.502-3.562 4.019-2.54 7.741-6.7 9.813-10.969 1.592-3.279 1.874-4.786 1.898-10.162.026-5.75-.176-6.729-2.267-10.98-2.794-5.677-7.716-10.334-13.313-12.595l-3.991-1.613-183.75-.098c-101.063-.055-185.278.16-187.145.476M21.21 363.201c-6.932 2.4-11.929 6.991-15.096 13.868-2.368 5.142-2.237 14.57.274 19.831 2.725 5.71 6.31 9.416 11.652 12.046l4.681 2.304H397.25l3.934-1.845c5.534-2.594 9.329-6.296 11.984-11.691 2.065-4.193 2.282-5.236 2.282-10.949 0-5.381-.276-6.905-1.869-10.303-2.384-5.086-7.257-9.959-12.343-12.343l-3.988-1.869-186.2-.155c-177.742-.148-186.365-.097-189.84 1.106"
          fill-rule="evenodd" fill="#000"/>
</svg>
