<svg width="420" height="422" fill="none" xmlns="http://www.w3.org/2000/svg">
    <path d="M24.955 1.429C17.233 2.737 9.29 8.861 6.127 15.948c-2.229 4.992-2.487 13.376-.57 18.459 2.963 7.855 8.837 13.286 16.865 15.591 3.501 1.006 21.594 1.095 189 .932l185.128-.18 4.033-1.628c5.158-2.083 10.492-7.235 12.974-12.533 1.641-3.501 1.893-4.925 1.893-10.689 0-5.863-.231-7.121-1.956-10.633-2.487-5.064-8.31-10.448-13.621-12.593L395.85 1.05 212.1.952c-101.063-.054-185.278.161-187.145.477m-1.587 181.235c-7.057 1.685-13.826 7.236-16.949 13.898-1.614 3.445-1.869 4.894-1.869 10.638 0 5.863.231 7.121 1.956 10.633 2.487 5.064 8.31 10.448 13.621 12.593l4.023 1.624h371.7l4.023-1.624c5.281-2.133 11.138-7.533 13.577-12.517 2.686-5.491 3.106-13.615.993-19.216-2.95-7.82-8.794-13.242-16.795-15.581-3.434-1.004-21.642-1.105-187.95-1.04-101.281.039-185.13.306-186.33.592m-2.141 181.641c-6.158 1.931-11.418 6.58-14.705 12.995-1.755 3.426-1.972 4.583-1.972 10.511 0 6.103.191 7.049 2.282 11.299 2.655 5.399 6.447 9.099 11.984 11.695l3.934 1.845h374.5l3.934-1.845c5.537-2.596 9.329-6.296 11.984-11.695 2.097-4.263 2.281-5.178 2.264-11.299-.015-5.551-.291-7.218-1.662-10.007-2.42-4.926-7.087-9.733-11.728-12.083l-4.092-2.071-186.9-.131c-152.377-.106-187.44.039-189.823.786"
          fill-rule="evenodd" fill="#000"/>
</svg>
