<svg width="422" height="422" fill="none" xmlns="http://www.w3.org/2000/svg"><path d="M25.352 1.472c-7.859 1.54-14.663 6.994-18.191 14.581-1.542 3.317-1.858 5.006-1.871 9.985-.013 5.371.225 6.481 2.297 10.689 1.449 2.945 3.547 5.787 5.626 7.624 2.537 2.24 40.799 21.672 162.906 82.735l159.591 79.808-2.962 1.683c-1.63.925-73.604 37.013-159.943 80.195C.281 375.058 11.281 369.134 7.363 377.864c-3.709 8.265-2.657 17.886 2.755 25.203 6.445 8.713 18.665 12.107 28.881 8.02 2.432-.973 86.054-42.551 185.826-92.394 199.599-99.715 185.503-92.205 189.918-101.195 1.729-3.521 1.982-4.846 1.982-10.381 0-5.752-.216-6.784-2.312-11.041-1.4-2.844-3.52-5.75-5.378-7.37C405.044 185.225 40.895 3.039 35.167 1.658 30.836.614 29.826.595 25.352 1.472" fill-rule="evenodd" fill="#000"/></svg>
