<svg width="253" height="448" fill="none" xmlns="http://www.w3.org/2000/svg">
    <path d="M22.855.853C15.897 2.675 10.023 7.425 6.851 13.791c-2.231 4.48-2.791 7.272-2.517 12.558.269 5.189 1.342 8.461 4.13 12.595 1.511 2.241 24.797 25.772 91.025 91.982l88.993 88.969-89.535 89.606c-58.676 58.724-90.016 90.38-90.931 91.85-2.43 3.906-3.466 7.357-3.695 12.309-.356 7.712 1.727 13.184 7.064 18.561 6.488 6.537 15.087 8.969 23.819 6.735 7.158-1.83-.81 5.768 108.501-103.464 66.122-66.075 100.204-100.421 101.315-102.099 4.025-6.083 5.052-14.364 2.642-21.313-.686-1.982-1.94-4.638-2.786-5.904-.898-1.342-43.122-43.849-101.386-102.065C44.933 5.636 43.601 4.327 40.426 2.795 34.633 0 28.64-.663 22.855.853"
          fill-rule="evenodd" fill="#000"/>
</svg>
