<svg width="422" height="421" fill="none" xmlns="http://www.w3.org/2000/svg">
    <path d="M206.24 1.42c-4.37.904-11.184 4.763-13.756 7.791C189.745 12.436 6.69 378.45 5.548 382.987c-1.736 6.892.801 16.223 5.963 21.937 1.392 1.54 4.514 3.875 6.939 5.19 4.177 2.266 4.777 2.391 11.442 2.391 6.256 0 7.47-.215 10.989-1.943 8.385-4.118 3.124 5.706 90.076-168.192 43.83-87.657 79.85-159.376 80.043-159.376.193 0 36.213 71.719 80.043 159.376 86.952 173.898 81.691 164.074 90.076 168.192 3.519 1.728 4.733 1.943 10.989 1.943 6.665 0 7.265-.125 11.442-2.391 5.288-2.867 8.827-6.607 11.301-11.943 1.525-3.289 1.837-4.984 1.854-10.092l.02-6.139-91.785-183.761C274.458 97.111 232.246 13.04 231.136 11.355 226.313 4.037 215.141-.421 206.24 1.42"
          fill-rule="evenodd" fill="#000"/>
</svg>
