<svg width="448" height="253" fill="none" xmlns="http://www.w3.org/2000/svg"><path d="M216.907 1c-1.643.544-3.995 1.527-5.227 2.185-1.232.657-47.432 46.402-102.667 101.655C-3.368 217.258 4.233 208.916 4.241 219.826c.008 9.948 4.949 18.026 13.787 22.537 5.684 2.902 13.501 3.315 19.679 1.04 4.342-1.599 7.264-4.431 94.843-91.913 49.699-49.645 90.855-90.263 91.456-90.263.601 0 41.754 40.619 91.45 90.264 87.589 87.499 90.495 90.315 94.837 91.913 9.787 3.602 21.753.357 28.047-7.606 5.911-7.478 7.167-17.567 3.226-25.93-1.954-4.147-11.458-13.874-102.921-105.327C252.589 18.495 237.327 3.546 234.112 2.152 229.503.154 221.149-.406 216.907 1" fill-rule="evenodd" fill="#000"/></svg>
