<svg id="Layer_1" data-name="Layer 1" xmlns="http://www.w3.org/2000/svg" xmlns:xlink="http://www.w3.org/1999/xlink" viewBox="0 0 1275.78 1431.83"><defs><linearGradient id="linear-gradient" x1="449.86" y1="726.81" x2="449.86" y2="416.65" gradientUnits="userSpaceOnUse"><stop offset="0.39" stop-color="#d1d3d4" stop-opacity="0"/><stop offset="1" stop-color="#d1d3d4"/></linearGradient><linearGradient id="linear-gradient-2" x1="838.31" y1="572.11" x2="838.31" y2="249.73" xlink:href="#linear-gradient"/><linearGradient id="linear-gradient-3" x1="262.88" y1="865.14" x2="1009.57" y2="865.14" gradientUnits="userSpaceOnUse"><stop offset="0" stop-color="#e8e7e5"/><stop offset="1" stop-color="#fff"/></linearGradient><linearGradient id="linear-gradient-4" x1="228.53" y1="328.65" x2="1039.2" y2="328.65" xlink:href="#linear-gradient-3"/></defs><polygon points="1156.17 1292.61 637.89 1431.83 119.6 1292.61 0 0 1275.78 0 1156.17 1292.61" style="fill:#2062af"/><polygon points="637.88 89.83 637.88 1319.55 639.06 1319.87 1063.19 1205.94 1161.08 89.83 637.88 89.83" style="fill:#3c9cd7"/><polygon points="637.42 416.65 262.3 572.51 274.75 726.81 637.42 572.11 1023.2 407.57 1039.19 249.73 637.42 416.65" style="fill:#fff"/><polygon points="262.3 572.51 274.75 726.81 637.42 572.11 637.42 416.65 262.3 572.51" style="fill:url(#linear-gradient)"/><polygon points="1039.19 249.73 637.42 416.65 637.42 572.11 1023.2 407.57 1039.19 249.73" style="fill:url(#linear-gradient-2)"/><polygon points="262.88 572.51 275.33 726.81 831.79 728.58 819.35 934.31 636.24 985.74 460.21 941.41 449.55 813.71 285.99 813.71 307.32 1060.23 638.01 1157.78 966.9 1062 1009.57 572.51 262.88 572.51" style="fill:url(#linear-gradient-3)"/><g style="opacity:0.05"><polygon points="637.42 572.51 262.3 572.51 274.75 726.81 637.42 727.96 637.42 572.51" style="fill:#231f20"/><polygon points="637.42 985.24 635.64 985.74 459.64 941.41 448.97 813.71 285.42 813.71 306.75 1060.23 637.42 1157.78 637.42 985.24" style="fill:#231f20"/></g><polygon points="228.53 249.73 1039.19 249.73 1023.2 407.57 248.08 407.57 228.53 249.73" style="fill:url(#linear-gradient-4)"/><polygon points="637.42 249.73 228.53 249.73 248.08 407.57 637.42 407.57 637.42 249.73" style="fill:#231f20;opacity:0.05"/></svg>