<svg id="Layer_1" data-name="Layer 1" xmlns="http://www.w3.org/2000/svg" viewBox="0 0 512 512"><path d="M302.12,246.66h13.05v46.78H302.12v-6.12c-4.72,7-10.75,7.44-14.47,7.44-14.46,0-23.8-11.24-23.8-24.79,0-14.05,9.34-24.8,22.89-24.8,3.72,0,10.75.5,15,7.44V246.5h.42Zm-24.38,23.39c0,7.44,5.12,13.06,13.05,13.06a12.78,12.78,0,0,0,13.06-13.06c0-7.44-5.12-13.06-13.06-13.06A12.68,12.68,0,0,0,277.74,270.05Zm63.14-12.15v35.54H327.82V257.9h-5.13V246.66h5.13V230.79h13.06v15.87h8.84V257.9Zm39.75,0c-3.31-2.81-6.12-3.3-7.44-3.3-3.31,0-5.12,1.4-5.12,3.71,0,1.41.49,2.81,4.21,4.22l3.31.91c3.72,1.4,9.34,2.81,11.65,6.53a13.51,13.51,0,0,1,2.31,7.93,14.87,14.87,0,0,1-5.12,11.65,20.9,20.9,0,0,1-14.05,5.13c-9.83,0-15-4.71-18.26-7.94l7-7.93c2.81,2.81,6.53,5.62,10.25,5.62s6.53-1.9,6.53-5.12c0-2.81-2.32-4.22-4.22-4.72l-2.81-.9c-3.3-1.41-7-2.81-9.83-5.62a12,12,0,0,1-3.72-8.85,15,15,0,0,1,4.71-10.74c3.72-2.81,8.43-3.31,12.15-3.31a23.82,23.82,0,0,1,15,5.13C387.16,250.38,380.63,257.9,380.63,257.9Zm28.51-5.21a17.8,17.8,0,0,1,15-7.43c13.55,0,22.89,10.74,22.89,24.79s-9.34,24.79-23.39,24.79a18,18,0,0,1-15-7.44v6.12H396V215h13.06C409.14,214.84,409.14,252.69,409.14,252.69Zm-1.4,17.36c0,7.44,5.12,13.06,13.05,13.06a12.78,12.78,0,0,0,13.06-13.06c0-7.44-5.12-13.06-13.06-13.06S407.74,262.53,407.74,270.05Zm60.74,16.36-22.4-39.75h15.46L476,273.27l13.06-26.61h14.87l-37.35,71.49h-15Zm-208-31.81H227.74v13H245c-2.81,8.85-9.34,15-21.49,15-13.55,0-23.39-11.24-23.39-24.79s9.34-25.21,22.89-25.21a25.34,25.34,0,0,1,19.67,9.84l10.75-7A37.09,37.09,0,0,0,223,220a37.58,37.58,0,0,0-37.35,37.85c0,21,15.87,37.85,37.35,37.85s37.36-16.86,37.36-37.85C261,256.5,260.46,255.5,260.46,254.6Z"/><path d="M124.93,256H92.2v9.34h22.48a42.52,42.52,0,0,1-27.11,30.41L33.85,242A42,42,0,0,1,73.6,214a43,43,0,0,1,34.55,17.77l7-6.12A51.38,51.38,0,0,0,23.6,244.84L85.26,306.5C107.65,300.88,124.93,280.3,124.93,256Zm-102.81.5a50,50,0,0,0,15,35.53,50.68,50.68,0,0,0,35.54,15Z" style="fill:#fff"/><path d="M73.52,190.55A65.45,65.45,0,1,0,139,256,65.7,65.7,0,0,0,73.52,190.55ZM37.07,292.45a50.71,50.71,0,0,1-14.95-35.54L73,307.4C60,306.91,46.91,302.28,37.07,292.45ZM84.76,306,23.52,244.76a51.38,51.38,0,0,1,91.57-19.17l-7,6.11a43.18,43.18,0,0,0-34.55-17.77c-18.26,0-33.64,11.66-39.75,28l53.72,53.72a42.52,42.52,0,0,0,27.11-30.41H92.2V256h32.73A51.52,51.52,0,0,1,84.76,306Z" style="fill:#639"/></svg>