<svg id="Layer_1" data-name="Layer 1" xmlns="http://www.w3.org/2000/svg" viewBox="0 0 512 512"><path d="M298.73,63.27l102.82,59.37a44.59,44.59,0,1,1,54.68,69.25,44.35,44.35,0,0,1-11.87,4.73V315.41a44.58,44.58,0,1,1-43.85,73l-102.19,59a44.58,44.58,0,1,1-85.08,1.44l-102.8-59.35a44.59,44.59,0,1,1-42.8-74.11V196.62a44.59,44.59,0,1,1,42.76-74L213.25,63.21a44.57,44.57,0,1,1,85.48.06ZM288,81.56l103.07,59.51a44.53,44.53,0,0,0,32.08,55.45V315.45c-.58.14-1.15.3-1.73.46L286.82,82.75C287.22,82.36,287.62,82,288,81.56Zm-62.8,1.22L90.6,315.93c-.59-.17-1.17-.32-1.76-.47V196.52A44.52,44.52,0,0,0,120.9,141l103-59.5C224.36,81.94,224.78,82.37,225.21,82.78Zm43.24,10.56L403,326.44a44.41,44.41,0,0,0-7.85,10,45,45,0,0,0-4.7,11.75h-269A44.29,44.29,0,0,0,109,326.5L243.58,93.35a44.93,44.93,0,0,0,24.87,0ZM289,431.44l102.4-59.12c-.31-1-.58-1.94-.82-2.92H121.45c-.14.58-.3,1.15-.46,1.72l102.9,59.42a44.62,44.62,0,0,1,65.07.9Z" style="fill:#fff;fill-rule:evenodd"/></svg>