<svg id="Layer_1" data-name="Layer 1" xmlns="http://www.w3.org/2000/svg" viewBox="0 0 451.46 512"><defs><style>.cls-1{fill:#e44d26;}.cls-2{fill:#f16529;}.cls-3{fill:#ebebeb;}.cls-4{fill:#fff;}</style></defs><polygon class="cls-1" points="41.09 460.82 0 0 451.45 0 410.33 460.75 225.45 512 41.09 460.82"/><polygon class="cls-2" points="225.73 472.82 375.12 431.41 410.26 37.68 225.73 37.68 225.73 472.82"/><polygon class="cls-3" points="225.73 208.59 150.94 208.59 145.78 150.72 225.73 150.72 225.73 94.2 225.53 94.2 84.01 94.2 85.36 109.36 99.25 265.11 225.73 265.11 225.73 208.59"/><polygon class="cls-3" points="225.73 355.37 225.48 355.44 162.54 338.44 158.51 293.37 127.93 293.37 101.78 293.37 109.69 382.11 225.47 414.25 225.73 414.17 225.73 355.37"/><polygon class="cls-4" points="225.53 208.59 225.53 265.11 295.13 265.11 288.57 338.41 225.53 355.42 225.53 414.22 341.39 382.11 342.25 372.56 355.53 223.77 356.91 208.59 341.68 208.59 225.53 208.59"/><polygon class="cls-4" points="225.53 94.2 225.53 129.3 225.53 150.58 225.53 150.72 361.87 150.72 361.87 150.72 362.05 150.72 363.18 138.01 365.76 109.36 367.11 94.2 225.53 94.2"/></svg>