<svg id="Layer_1" data-name="Layer 1" xmlns="http://www.w3.org/2000/svg" viewBox="0 0 512 512"><path d="M498.33,119.25a7.89,7.89,0,0,1,.27,2V228.51a7.81,7.81,0,0,1-3.93,6.78l-90,51.81V389.79a7.85,7.85,0,0,1-3.91,6.78L212.94,504.7a8.24,8.24,0,0,1-1.37.57c-.18.06-.34.17-.53.22a8,8,0,0,1-4,0,6.57,6.57,0,0,1-.61-.26,7.15,7.15,0,0,1-1.29-.53L17.33,396.57a7.81,7.81,0,0,1-3.93-6.78V68.15a8.31,8.31,0,0,1,.27-2.06c.06-.22.2-.42.28-.65a6.71,6.71,0,0,1,.5-1.21,7.15,7.15,0,0,1,.53-.7,7.73,7.73,0,0,1,.7-.9,6.52,6.52,0,0,1,.77-.59,6.2,6.2,0,0,1,.86-.67h0L111.22,7.3a7.85,7.85,0,0,1,7.82,0L213,61.37h0c.31.19.57.44.86.66s.53.37.76.59a8.8,8.8,0,0,1,.7.91,7.15,7.15,0,0,1,.53.7,9.13,9.13,0,0,1,.51,1.21c.08.23.21.43.27.66a7.9,7.9,0,0,1,.27,2.05V269L295.13,224V121.29a7.77,7.77,0,0,1,.27-2c.07-.23.19-.44.27-.66a10,10,0,0,1,.51-1.21c.15-.26.36-.46.53-.7a8.8,8.8,0,0,1,.7-.91,8.47,8.47,0,0,1,.76-.58,8.83,8.83,0,0,1,.86-.68h0L393,60.45a7.81,7.81,0,0,1,7.82,0l93.9,54.06a8.49,8.49,0,0,1,.88.67,8.77,8.77,0,0,1,.75.58,10.27,10.27,0,0,1,.71.92,5.76,5.76,0,0,1,.52.7,6.75,6.75,0,0,1,.51,1.21A5.44,5.44,0,0,1,498.33,119.25ZM483,224V134.83l-32.87,18.92-45.39,26.14V269L483,224ZM389,385.27V296.05l-44.66,25.5L216.86,394.33v90.06ZM29.05,81.68V385.27l172.16,99.11v-90l-89.94-50.9,0,0,0,0a9.82,9.82,0,0,1-.84-.64c-.24-.2-.52-.35-.74-.57l0,0a6.43,6.43,0,0,1-.64-.82,8.18,8.18,0,0,1-.59-.76v0a5.76,5.76,0,0,1-.41-1,5.27,5.27,0,0,1-.37-.88h0a7.28,7.28,0,0,1-.16-1.14,6.61,6.61,0,0,1-.11-.88V126.74L61.92,100.59,29.05,81.69Zm86.09-58.57-78.24,45,78.22,45,78.23-45-78.23-45Zm40.69,281.07,45.39-26.13V81.68L168.36,100.6,123,126.74V323.11Zm241-227.92-78.23,45,78.23,45,78.22-45ZM389,179.89l-45.4-26.14-32.86-18.92V224l45.39,26.13L389,269ZM209,380.8l114.75-65.51,57.36-32.73-78.18-45-90,51.82-82,47.22Z" style="fill:#fff"/></svg>