<svg id="Layer_1" data-name="Layer 1" xmlns="http://www.w3.org/2000/svg" viewBox="0 0 493.56 335.2"><path d="M346.6,122.4a21.9,21.9,0,0,0-5.63.69v.27h.27c1.11,2.2,3,3.72,4.4,5.64,1.1,2.2,2.07,4.4,3.16,6.6l.27-.28c1.94-1.37,2.9-3.57,2.9-6.87-.83-1-1-1.93-1.65-2.89-.82-1.37-2.61-2.06-3.72-3.16" transform="translate(-9.22 -88.4)" style="fill:#5d87a1;fill-rule:evenodd"/><path d="M127.88,393.77h-19q-1-48.22-5.56-90.69h-.17l-29,90.69H59.62L30.8,303.08h-.17q-3.21,40.8-4.05,90.69H9.22Q10.9,333.08,17.65,280h23.6l27.47,83.61h.17L96.54,280h22.58q7.42,62.2,8.76,113.79" transform="translate(-9.22 -88.4)" style="fill:#00758f"/><path d="M210.48,309.82q-11.64,63.12-30.68,91.73Q165,423.6,147.27,423.6q-4.72,0-11.63-2.83V410.62a55.12,55.12,0,0,0,7.92.51c5.51,0,9.94-1.52,13.32-4.56q6.06-5.55,6.06-12.47,0-4.73-4.72-19.38l-20.9-64.9H156l15,48.54q5.06,16.53,4.22,23.1a317,317,0,0,0,17.19-71.64Z" transform="translate(-9.22 -88.4)" style="fill:#00758f"/><polygon points="454.77 305.36 400.66 305.36 400.66 191.58 418.87 191.58 418.87 291.37 454.77 291.37 454.77 305.36" style="fill:#f29111"/><path d="M395.72,396.51,374.81,386.2a39.22,39.22,0,0,0,5.23-5.09q13.32-15.64,13.32-46.34,0-56.46-44.33-56.47-21.73,0-33.88,14.33-13.32,15.67-13.32,46.18,0,30,11.8,44,10.78,12.63,32.54,12.64a52.53,52.53,0,0,0,14.89-2L388.3,409.3ZM328,371q-6.91-11.12-6.91-35.72,0-43,26.12-43,13.66,0,20.07,10.28,6.9,11.13,6.91,35.4,0,43.32-26.13,43.32-13.65,0-20.06-10.29" transform="translate(-9.22 -88.4)" style="fill:#f29111;fill-rule:evenodd"/><path d="M293.9,362.23A30.23,30.23,0,0,1,283.29,386q-10.62,9.25-28.48,9.26-16.69,0-32.36-10.62l4.89-9.78q13.49,6.75,24.43,6.74,10.28,0,16.1-4.54a15.48,15.48,0,0,0,6.19-12.63c0-6.76-4.71-12.53-13.36-17.38-8-4.38-23.93-13.52-23.93-13.52-8.64-6.3-13-13.07-13-24.21q0-13.83,9.68-22.34t25-8.52a51.78,51.78,0,0,1,28.82,8.44l-4.39,9.76A55.77,55.77,0,0,0,261,292q-8.76,0-13.48,4.22a14.12,14.12,0,0,0-5.1,10.78c0,6.74,4.81,12.59,13.7,17.52,8.08,4.39,24.42,13.71,24.42,13.71,8.89,6.29,13.32,13,13.32,24.05" transform="translate(-9.22 -88.4)" style="fill:#f29111"/><path d="M486.83,241.87c-11-.27-19.52.82-26.67,3.85-2.06.82-5.36.82-5.64,3.44,1.11,1.1,1.24,2.88,2.21,4.4a32.08,32.08,0,0,0,7.15,8.38c2.88,2.2,5.77,4.4,8.8,6.32,5.35,3.31,11.41,5.23,16.62,8.53,3,1.92,6.05,4.4,9.09,6.46,1.5,1.1,2.46,2.89,4.39,3.57v-.41c-1-1.24-1.24-3-2.2-4.41-1.37-1.36-2.75-2.61-4.12-4a65.39,65.39,0,0,0-14.3-13.89c-4.4-3-14-7.15-15.81-12.22l-.28-.28a54.75,54.75,0,0,0,9.49-2.22c4.67-1.23,8.93-.95,13.74-2.19,2.21-.55,4.41-1.24,6.61-1.92v-1.24c-2.48-2.47-4.26-5.78-6.87-8.11a183.64,183.64,0,0,0-22.69-16.91c-4.27-2.76-9.77-4.53-14.3-6.88-1.65-.82-4.39-1.23-5.36-2.61-2.48-3-3.86-7-5.64-10.59-4-7.55-7.84-15.93-11.27-23.92-2.47-5.36-4-10.72-7-15.67C408.6,136,393.21,121.85,369.56,108c-5.08-2.9-11.13-4.13-17.59-5.64-3.44-.15-6.87-.42-10.31-.55-2.2-1-4.41-3.58-6.33-4.82-7.84-4.94-28-15.67-33.82-1.51-3.71,8.94,5.5,17.74,8.67,22.28,2.33,3.15,5.36,6.73,7,10.3,1,2.34,1.24,4.82,2.21,7.29,2.19,6.05,4.25,12.79,7.15,18.43a63.32,63.32,0,0,0,5.08,8.51c1.11,1.52,3,2.2,3.44,4.69-1.92,2.74-2.07,6.87-3.17,10.31-4.94,15.53-3,34.78,4,46.19,2.2,3.43,7.43,11,14.44,8.1,6.18-2.47,4.81-10.3,6.6-17.17.41-1.67.13-2.76.95-3.85v.27c1.93,3.85,3.86,7.55,5.64,11.41,4.27,6.73,11.69,13.75,17.88,18.42,3.29,2.48,5.9,6.73,10,8.25v-.41h-.27c-.83-1.24-2.06-1.79-3.16-2.75a68.12,68.12,0,0,1-7.16-8.25,176.48,176.48,0,0,1-15.39-25c-2.2-4.27-4.12-8.94-5.91-13.2-.83-1.64-.83-4.13-2.2-4.95-2.07,3-5.09,5.64-6.6,9.34-2.61,5.92-2.88,13.2-3.85,20.77-.55.14-.28,0-.55.27-4.4-1.1-5.91-5.63-7.56-9.47-4.12-9.78-4.82-25.45-1.24-36.72,1-2.88,5.1-12,3.44-14.71-.83-2.62-3.58-4.12-5.09-6.19a54.31,54.31,0,0,1-4.94-8.79c-3.31-7.7-5-16.23-8.53-23.92-1.65-3.58-4.54-7.3-6.87-10.59-2.62-3.71-5.5-6.32-7.57-10.72-.68-1.51-1.64-4-.55-5.64a2.21,2.21,0,0,1,1.93-1.79c1.78-1.51,6.87.41,8.66,1.24a69.67,69.67,0,0,1,13.61,6.87c1.92,1.38,4,4,6.46,4.68H341c4.39,1,9.35.27,13.48,1.51a87.93,87.93,0,0,1,19.79,9.49,121.92,121.92,0,0,1,42.88,47c1.66,3.15,2.35,6,3.86,9.34,2.89,6.75,6.47,13.62,9.35,20.21s5.64,13.06,9.77,18.43c2,2.88,10.3,4.39,14,5.91,2.74,1.23,7,2.33,9.48,3.84,4.68,2.88,9.34,6.19,13.75,9.35,2.19,1.65,9.07,5.09,9.48,7.84" transform="translate(-9.22 -88.4)" style="fill:#00758f;fill-rule:evenodd"/><path d="M499.94,393.75h2.84V379.81H498.5L495,389.32l-3.79-9.51h-4.12v13.94h2.69v-10.6H490l4,10.6H496l4-10.6Zm-23,0h3V382.18H484v-2.37H472.88v2.37H477Z" transform="translate(-9.22 -88.4)" style="fill:#f29111"/></svg>