<svg id="Layer_1" data-name="Layer 1" xmlns="http://www.w3.org/2000/svg" viewBox="0 0 512 512"><path d="M33.61,338.06H48.29V279.9l22.92,50.7c2.6,6.1,6.33,8.36,13.55,8.36s10.73-2.26,13.44-8.36L121,279.9v58.16H135.8V279.9c0-5.64-2.26-8.35-7-9.82-11.18-3.39-18.63-.45-22,7.11L84.31,327.33,62.63,277.19c-3.28-7.56-10.84-10.5-22.13-7.11-4.63,1.47-6.89,4.18-6.89,9.82v58.16Z" style="fill:#ff6;fill-rule:evenodd"/><path d="M148,290.74h14.79v32c-.11,1.81.56,5.87,8.58,6,4.18.12,31.84,0,32.07,0V290.52h14.79V342.8c0,12.87-15.92,15.69-23.37,15.81H148.33v-9.83H195c9.48-1,8.35-5.75,8.35-7.34V337.6H172.05c-14.57-.11-23.94-6.54-24.05-13.88,0-.68.33-32.75,0-33Z" style="fill:#ff6;fill-rule:evenodd"/><path d="M465.29,253.71c-9-.23-16,.67-21.9,3.16-1.7.68-4.41.68-4.63,2.82.9.91,1,2.37,1.8,3.62a26.71,26.71,0,0,0,5.87,6.88c2.37,1.81,4.75,3.62,7.23,5.2,4.4,2.71,9.37,4.29,13.66,7,2.49,1.58,5,3.61,7.46,5.31,1.24.9,2,2.37,3.61,2.93v-.34c-.79-1-1-2.48-1.81-3.61-1.13-1.13-2.25-2.15-3.38-3.28A53.59,53.59,0,0,0,461.45,272c-3.61-2.48-11.52-5.87-13-10.05l-.23-.23a45.14,45.14,0,0,0,7.79-1.8c3.84-1,7.34-.79,11.29-1.81,1.81-.45,3.62-1,5.42-1.58v-1c-2-2-3.5-4.74-5.64-6.66A151,151,0,0,0,448.47,235c-3.5-2.25-8-3.72-11.75-5.64-1.35-.68-3.61-1-4.4-2.15-2-2.48-3.16-5.76-4.63-8.69-3.27-6.21-6.44-13.1-9.26-19.65-2-4.4-3.27-8.81-5.76-12.87-11.63-19.2-24.28-30.83-43.7-42.23-4.18-2.37-9.14-3.39-14.45-4.63-2.82-.12-5.65-.34-8.47-.45-1.81-.8-3.61-2.94-5.19-4-6.44-4.06-23-12.87-27.78-1.24-3.05,7.34,4.52,14.57,7.11,18.29,1.92,2.6,4.41,5.54,5.76,8.47.79,1.92,1,3.95,1.81,6,1.81,5,3.5,10.5,5.87,15.13a54.83,54.83,0,0,0,4.18,7c.9,1.24,2.48,1.81,2.82,3.84-1.58,2.26-1.69,5.64-2.6,8.47-4.06,12.76-2.48,28.56,3.28,37.94,1.81,2.82,6.1,9,11.85,6.66,5.09-2,4-8.47,5.42-14.12.34-1.35.12-2.25.8-3.16v.23c1.58,3.16,3.16,6.21,4.62,9.37,3.51,5.53,9.6,11.29,14.68,15.13,2.71,2,4.86,5.53,8.25,6.78v-.34h-.23a12.25,12.25,0,0,0-2.6-2.26,54.71,54.71,0,0,1-5.87-6.78,144.44,144.44,0,0,1-12.64-20.55c-1.81-3.5-3.39-7.34-4.86-10.84-.68-1.35-.68-3.38-1.81-4.06-1.69,2.48-4.17,4.63-5.42,7.68-2.14,4.85-2.37,10.84-3.16,17.05-.45.11-.22,0-.45.22-3.61-.9-4.86-4.63-6.21-7.79-3.39-8-3.95-20.89-1-30.15.79-2.37,4.18-9.82,2.83-12.08-.68-2.14-2.94-3.39-4.18-5.08a46,46,0,0,1-4.07-7.23c-2.71-6.32-4.06-13.32-7-19.65-1.35-2.93-3.72-6-5.64-8.69-2.15-3-4.52-5.19-6.21-8.81-.57-1.24-1.36-3.27-.46-4.63a1.8,1.8,0,0,1,1.59-1.46c1.46-1.25,5.64.33,7.11,1a58,58,0,0,1,11.18,5.65c1.58,1.13,3.27,3.27,5.31,3.84h2.37c3.61.79,7.67.22,11.06,1.24a71.93,71.93,0,0,1,16.26,7.79A100.17,100.17,0,0,1,408,192.17c1.36,2.59,1.92,5,3.16,7.68,2.37,5.53,5.31,11.18,7.68,16.6s4.63,10.72,8,15.13c1.69,2.37,8.47,3.61,11.52,4.85,2.26,1,5.76,1.92,7.79,3.16,3.84,2.37,7.68,5.08,11.29,7.68,1.81,1.36,7.45,4.18,7.79,6.44Z" style="fill:#ff6;fill-rule:evenodd"/><path d="M350.12,155.58a17.77,17.77,0,0,0-4.63.57v.22h.22c.91,1.81,2.49,3,3.61,4.63.91,1.81,1.7,3.62,2.6,5.42l.23-.22c1.58-1.13,2.37-2.94,2.37-5.65a26.1,26.1,0,0,1-1.36-2.37c-.67-1.13-2.14-1.69-3-2.6Z" style="fill:#ff6;fill-rule:evenodd"/><path d="M229.52,338.06H272a32.22,32.22,0,0,0,13.55-2.83c6.43-2.93,9.48-6.89,9.48-12.08V312.31c0-4.18-3.5-8.13-10.5-10.84A37,37,0,0,0,272,299.33H254.14c-6,0-8.81-1.81-9.6-5.76a5.68,5.68,0,0,1-.11-1.36v-6.66a5.17,5.17,0,0,1,.11-1.24c.79-3.05,2.37-3.84,7.56-4.41h43.48v-9.82H254.25c-6,0-9.15.34-12,1.24-8.69,2.71-12.53,7-12.53,14.57v8.58c0,6.66,7.45,12.31,20.1,13.66,1.35.12,2.82.12,4.29.12h15.24a7.08,7.08,0,0,1,1.58.11c4.63.45,6.66,1.24,8,2.93a3.46,3.46,0,0,1,1.13,2.72v8.58a5,5,0,0,1-2,3.5,10.51,10.51,0,0,1-6.33,2c-.56,0-.9.11-1.47.11H229.52v9.83Z" style="fill:#ff6;fill-rule:evenodd"/><path d="M386.93,321c0,10.05,7.56,15.69,22.69,16.82,1.47.11,2.83.23,4.29.23h38.4v-9.83H413.57c-8.58,0-11.85-2.14-11.85-7.34V270.08H386.93V321Z" style="fill:#ff6;fill-rule:evenodd"/><path d="M304.38,321.46v-35c0-8.92,6.33-14.34,18.64-16,1.35-.11,2.71-.23,4-.23h28c1.47,0,2.71.12,4.18.23,12.31,1.69,18.52,7.11,18.52,16v35c0,7.22-2.6,11.06-8.7,13.66l14.46,13.1H366.38L354.63,337.6l-11.85.68H327a34.52,34.52,0,0,1-8.58-1.13c-9.38-2.59-14-7.56-14-15.69Zm15.93-.79a8.42,8.42,0,0,0,.34,1.47c.79,4.06,4.62,6.32,10.5,6.32h13.32l-12.19-11.07h17l10.73,9.71a7,7,0,0,0,3.73-4.74,6.62,6.62,0,0,0,.11-1.47V287.36a5.68,5.68,0,0,0-.11-1.36c-.79-3.84-4.63-6-10.39-6H331.15c-6.55,0-10.84,2.82-10.84,7.34v33.31Z" style="fill:#ff6;fill-rule:evenodd"/><path d="M459.08,338.17h2.15v-8.24h2.82v-1.7h-7.91v1.7h2.94v8.24Zm16.37,0h2v-9.94h-3.05L472,335l-2.71-6.78h-2.93v9.94h1.92V330.6h.11l2.82,7.57h1.47l2.82-7.57h0v7.57Z" style="fill:#ff6;fill-rule:evenodd"/></svg>