<svg id="Layer_1" data-name="Layer 1" xmlns="http://www.w3.org/2000/svg" viewBox="0 0 512 512"><path d="M125.29,184.41h93.37v7.44H133.85v56H213.6v7.44H133.85v61.45h85.78v7.44H125.29Zm101.73,0h9.92l44,61.46,44.93-61.46L387,106.35l-100.41,146,51.74,71.83H328L280.9,258.78l-47.26,65.37H223.52l52.13-71.83L227,184.41Zm115,7.44v-7.44h106.4v7.44h-49v132.3H390.8V191.85ZM8.49,184.41h10.7L166.71,405.65l-61-81.5L17.43,195l-.38,129.17H8.49Zm439,130.06a3.12,3.12,0,1,1,3.06-3.11,3,3,0,0,1-3.06,3.11Zm8.4-8.19h4.59a4.18,4.18,0,0,0,4.54,4.16c3,0,4.66-1.8,4.66-5.16V284h4.66V305.3c0,6.06-3.5,9.55-9.28,9.55-5.43,0-9.16-3.39-9.16-8.57Zm24.55-.27h4.62c.4,2.86,3.18,4.68,7.2,4.68,3.75,0,6.5-1.95,6.5-4.62,0-2.29-1.75-3.67-5.73-4.61l-3.87-.94c-5.43-1.28-7.91-3.91-7.91-8.34,0-5.37,4.37-8.94,10.93-8.94,6.1,0,10.55,3.57,10.82,8.65h-4.54c-.43-2.78-2.85-4.51-6.34-4.51-3.69,0-6.15,1.77-6.15,4.49,0,2.15,1.59,3.38,5.5,4.3l3.31.82c6.16,1.44,8.7,3.94,8.7,8.48,0,5.76-4.46,9.38-11.57,9.38-6.66,0-11.14-3.45-11.47-8.84Z" style="fill:#fff"/></svg>