<svg id="Layer_1" data-name="Layer 1" xmlns="http://www.w3.org/2000/svg" viewBox="0 0 512 512"><path d="M235.53,11.3a41.91,41.91,0,0,1,40.93,0q93.5,52.83,187,105.62c11.72,6.6,19.56,19.65,19.45,33.15V362c.08,14.06-8.53,27.42-20.9,33.87q-93.18,52.53-186.32,105.11a40.74,40.74,0,0,1-41.39-1.15q-27.94-16.19-55.91-32.32c-3.8-2.27-8.1-4.08-10.78-7.77,2.37-3.2,6.62-3.6,10.07-5,7.78-2.47,14.92-6.44,22.06-10.29,1.8-1.23,4-.76,5.74.35,15.93,9.13,31.71,18.52,47.69,27.57,3.41,2,6.86-.65,9.78-2.27q91.44-51.69,182.94-103.24a6.07,6.07,0,0,0,3.33-6q.06-104.85,0-209.7a6.56,6.56,0,0,0-3.91-6.54Q352.47,92.33,259.65,40a6.45,6.45,0,0,0-7.3,0Q159.52,92.28,66.7,144.65a6.48,6.48,0,0,0-3.93,6.51q0,104.84,0,209.71a5.93,5.93,0,0,0,3.37,5.88q24.78,14.06,49.58,28c9.31,5,20.75,8,31,4.15A23.51,23.51,0,0,0,162,376.81c.09-69.49,0-139,.07-208.47a5.23,5.23,0,0,1,5.69-5.34c7.94-.06,15.89-.11,23.82,0,3.32-.08,5.6,3.25,5.19,6.35,0,69.93.08,139.86-.06,209.79,0,18.64-7.63,38.92-24.87,48-21.24,11-47.49,8.67-68.47-1.88C85.16,416.25,67.83,405.55,50,395.84,37.59,389.42,29,376,29.1,362V150.07c-.13-13.78,8-27.07,20.11-33.57Q142.38,63.93,235.53,11.3Z" style="fill:#8cc84b"/><path d="M289.71,158.07c27.09-1.74,56.09-1,80.47,12.32,18.87,10.22,29.33,31.69,29.67,52.65-.53,2.83-3.49,4.39-6.19,4.2-7.86,0-15.72.1-23.58-.06-3.33.13-5.27-2.94-5.69-5.89-2.26-10-7.73-20-17.17-24.81-14.5-7.25-31.3-6.89-47.11-6.74-11.54.61-23.95,1.61-33.72,8.4-7.51,5.14-9.79,15.52-7.11,23.87,2.53,6,9.45,7.94,15.12,9.72,32.65,8.54,67.24,7.69,99.26,18.93,13.26,4.58,26.23,13.48,30.77,27.37,5.93,18.6,3.33,40.84-9.9,55.77-10.74,12.29-26.37,19-42,22.62-20.75,4.62-42.28,4.74-63.34,2.69-19.81-2.26-40.42-7.47-55.72-21-13.07-11.36-19.46-29-18.82-46.12.15-2.89,3-4.9,5.78-4.66,7.92-.06,15.83-.09,23.75,0,3.16-.23,5.5,2.51,5.66,5.49,1.46,9.56,5.06,19.59,13.39,25.25,16.09,10.38,36.27,9.67,54.69,10,15.26-.67,32.39-.88,44.84-11,6.57-5.76,8.52-15.38,6.74-23.66-1.92-7-9.23-10.25-15.51-12.38-32.23-10.19-67.21-6.5-99.13-18-13-4.58-25.48-13.24-30.46-26.55-6.95-18.84-3.76-42.14,10.86-56.58,14.26-14.35,34.84-19.88,54.41-21.86Z" style="fill:#8cc84b"/></svg>