<svg id="Layer_1" data-name="Layer 1" xmlns="http://www.w3.org/2000/svg" viewBox="0 0 512 512"><path d="M4.11,255.19c0,38,37.15,73.56,95.72,93.58-11.7,58.88-2.1,106.34,30,124.83,33,19,82.06,5.85,128.66-34.89,45.43,39.1,91.34,54.48,123.38,35.94,32.93-19.06,42.94-69.74,30.92-130.46,61-20.17,95.13-50.46,95.13-89,0-37.17-37.22-69.32-95-89.21,12.94-63.23,2-109.54-31.42-128.79-32.19-18.57-78.63-2.39-124.73,37.73-48-42.58-93.94-55.58-127.3-36.27C97.27,57.27,88.1,105.59,99.83,165.56,43.24,185.29,4.11,218.17,4.11,255.19Z" style="fill:#efeedc"/><path d="M400.15,186q-7-2.4-14.4-4.54,1.23-5,2.23-9.82c10.9-52.93,3.77-95.56-20.57-109.6-23.34-13.46-61.51.58-100.06,34.13-3.71,3.22-7.43,6.64-11.14,10.22q-3.72-3.55-7.42-6.85c-40.4-35.87-80.9-51-105.21-36.91-23.32,13.5-30.23,53.58-20.41,103.73q1.41,7.28,3.3,14.82c-5.73,1.63-11.26,3.36-16.55,5.21-47.37,16.51-77.62,42.4-77.62,69.24,0,27.73,32.47,55.54,81.81,72.4,3.89,1.34,7.93,2.59,12.1,3.79q-2,8.16-3.52,16c-9.36,49.28-2,88.42,21.21,101.83,24,13.85,64.33-.39,103.59-34.7,3.1-2.71,6.22-5.59,9.34-8.61q6.06,5.85,12.09,11c38,32.72,75.58,45.93,98.81,32.48,24-13.89,31.8-55.93,21.67-107.07q-1.15-5.87-2.68-12c2.83-.84,5.61-1.7,8.32-2.6,51.29-17,84.66-44.47,84.66-72.57,0-26.94-31.22-53-79.55-69.63Z" style="fill:#fff"/><path d="M389,310.05c-2.45.81-5,1.59-7.51,2.35a449.32,449.32,0,0,0-22.66-56.68,448.49,448.49,0,0,0,21.77-55.85q6.87,2,13.3,4.19c41.41,14.26,66.66,35.33,66.66,51.57,0,17.29-27.27,39.74-71.56,54.42Zm-18.38,36.41c4.48,22.62,5.12,43.06,2.16,59.05-2.67,14.36-8,23.94-14.65,27.77-14.1,8.17-44.26-2.44-76.77-30.43-3.73-3.2-7.49-6.63-11.25-10.25A450.7,450.7,0,0,0,307.64,345a446.71,446.71,0,0,0,60.59-9.34q1.38,5.52,2.42,10.82ZM184.83,431.87c-13.78,4.87-24.75,5-31.38,1.18-14.11-8.14-20-39.56-12-81.7q1.38-7.25,3.27-14.86A448.47,448.47,0,0,0,205,345.22a464.47,464.47,0,0,0,38.41,47.45q-4.29,4.14-8.53,7.85c-17.36,15.17-34.75,25.94-50.08,31.35ZM120.29,309.94c-21.82-7.45-39.83-17.15-52.18-27.72-11.1-9.5-16.7-18.94-16.7-26.59,0-16.3,24.29-37.08,64.8-51.2,4.91-1.71,10.06-3.33,15.4-4.85a458,458,0,0,0,21.8,56.51,467.63,467.63,0,0,0-22.08,57.31c-3.8-1.09-7.49-2.25-11-3.46Zm21.63-147.26c-8.4-43-2.82-75.38,11.23-83.52,15-8.66,48.07,3.69,82.95,34.67q3.35,3,6.72,6.19a457.71,457.71,0,0,0-38.12,47.17,466.28,466.28,0,0,0-59.7,9.28c-1.16-4.69-2.2-9.29-3.08-13.79Zm193,47.66q-6.65-11.47-13.61-22.38c14.27,1.81,27.95,4.2,40.8,7.13-3.86,12.36-8.67,25.28-14.32,38.53q-6.09-11.55-12.87-23.28Zm-78.71-76.66a406.73,406.73,0,0,1,26.33,31.79q-13.12-.63-26.54-.63t-26.34.62c8.7-11.47,17.6-22.12,26.55-31.78ZM177,210.47q-6.63,11.5-12.63,23.14c-5.57-13.2-10.33-26.18-14.22-38.72,12.77-2.85,26.38-5.19,40.56-7q-7,11-13.71,22.54Zm14.12,114.22a410.48,410.48,0,0,1-41.23-6.63c3.95-12.76,8.82-26,14.5-39.5q6,11.6,12.68,23.15h0q6.81,11.75,14,23Zm65.61,54.23c-9.06-9.78-18.09-20.59-26.92-32.22q12.85.51,26.18.51,13.68,0,27-.6a405,405,0,0,1-26.27,32.31ZM348,277.87a404.75,404.75,0,0,1,15,39.36,405.74,405.74,0,0,1-41.73,7.11q7-11,13.73-22.76t13-23.71ZM318.44,292c-7,12.12-14.18,23.7-21.47,34.63-13.27.95-27,1.44-41,1.44s-27.47-.44-40.51-1.28c-7.58-11.07-14.92-22.68-21.87-34.69h0c-6.94-12-13.31-24-19.09-36.05,5.77-12,12.14-24.11,19-36.06h0c6.91-12,14.18-23.54,21.69-34.54,13.31-1,27-1.53,40.74-1.53h0c13.85,0,27.51.53,40.82,1.55,7.39,10.92,14.62,22.43,21.55,34.42s13.46,24.12,19.29,35.89c-5.81,12-12.24,24.11-19.22,36.22ZM357.86,78.59c15,8.64,20.81,43.49,11.4,89.18-.6,2.92-1.28,5.89-2,8.9a456.7,456.7,0,0,0-59.82-9.45A450.67,450.67,0,0,0,269.61,120c3.43-3.3,6.87-6.46,10.29-9.43,33-28.75,63.9-40.1,78-32Z" style="fill:#753e6e"/><path d="M256,216.05A39.95,39.95,0,1,1,216.05,256,39.95,39.95,0,0,1,256,216.05" style="fill:#53c1de"/></svg>