<svg id="Layer_2" data-name="Layer 2" xmlns="http://www.w3.org/2000/svg" viewBox="0 0 500 445.27"><path d="M506.05,254.85c0-33.12-41.48-64.51-105.08-84,14.68-64.82,8.16-116.39-20.58-132.9-6.63-3.87-14.37-5.7-22.83-5.7V55a23.63,23.63,0,0,1,11.62,2.65c13.86,8,19.87,38.22,15.18,77.15-1.12,9.58-2.95,19.67-5.2,30a493,493,0,0,0-64.71-11.11,496.61,496.61,0,0,0-42.4-51c33.23-30.88,64.41-47.8,85.61-47.8V32.16h0c-28,0-64.72,20-101.81,54.63C218.75,52.34,182.06,32.57,154,32.57V55.3c21.1,0,52.39,16.82,85.61,47.49a481.1,481.1,0,0,0-42.09,50.86,475.83,475.83,0,0,0-64.82,11.21c-2.34-10.19-4.07-20.08-5.3-29.56-4.79-38.93,1.12-69.2,14.88-77.25,3.06-1.83,7-2.65,11.72-2.65V32.67h0a45.47,45.47,0,0,0-23,5.71c-28.64,16.51-35.06,68-20.28,132.59C47.33,190.54,6.05,221.83,6.05,254.85s41.48,64.51,105.08,84c-14.68,64.82-8.16,116.39,20.58,132.9,6.63,3.87,14.37,5.71,22.93,5.71,28,0,64.72-20,101.82-54.63C293.56,457.26,330.24,477,358.27,477a45.45,45.45,0,0,0,23-5.71c28.64-16.51,35.06-68,20.29-132.59C464.77,319.26,506.05,287.87,506.05,254.85Zm-132.69-68c-3.78,13.15-8.46,26.7-13.76,40.26-4.18-8.15-8.56-16.31-13.35-24.46s-9.69-16.1-14.68-23.85C346,181,360,183.61,373.36,186.87ZM326.68,295.41c-7.95,13.76-16.1,26.81-24.56,38.94-15.19,1.32-30.58,2-46.07,2s-30.78-.71-45.86-1.93c-8.46-12.13-16.72-25.07-24.67-38.73-7.74-13.35-14.77-26.91-21.19-40.56,6.31-13.66,13.45-27.32,21.09-40.67,8-13.76,16.1-26.8,24.56-38.93,15.19-1.32,30.58-2,46.07-2s30.78.72,45.86,1.94c8.46,12.13,16.72,25.07,24.67,38.73q11.61,20,21.19,40.56C341.35,268.41,334.32,282.06,326.68,295.41Zm32.92-13.25c5.5,13.66,10.19,27.32,14.06,40.57-13.35,3.26-27.41,6-42,8.15,5-7.85,10-15.9,14.68-24.15S355.42,290.32,359.6,282.16ZM256.25,390.91a424.58,424.58,0,0,1-28.33-32.61c9.17.4,18.55.71,28,.71s19.06-.2,28.33-.71A398.28,398.28,0,0,1,256.25,390.91Zm-75.82-60c-14.47-2.14-28.44-4.79-41.79-8.05,3.77-13.15,8.46-26.7,13.76-40.26,4.18,8.16,8.56,16.31,13.35,24.46S175.43,323.13,180.43,330.88Zm75.31-212.09a420.8,420.8,0,0,1,28.34,32.62c-9.18-.41-18.55-.72-28-.72s-19.06.21-28.33.72A398.69,398.69,0,0,1,255.74,118.79Zm-75.41,60c-5,7.85-10,15.9-14.68,24.16s-9.07,16.3-13.25,24.46c-5.5-13.66-10.19-27.32-14.06-40.57C151.69,183.71,165.75,181,180.33,178.82ZM88.09,306.42C52,291,28.68,270.85,28.68,254.85S52,218.57,88.09,203.28c8.77-3.77,18.35-7.13,28.23-10.29a491.07,491.07,0,0,0,22.93,62.06,483.72,483.72,0,0,0-22.62,61.77C106.54,313.66,97,310.19,88.09,306.42Zm54.83,145.64c-13.86-7.95-19.87-38.22-15.18-77.15,1.12-9.58,3-19.67,5.2-30a491.34,491.34,0,0,0,64.71,11.11,496.61,496.61,0,0,0,42.4,51c-33.23,30.88-64.41,47.8-85.61,47.8A24.34,24.34,0,0,1,142.92,452.06ZM384.67,374.4c4.79,38.93-1.12,69.2-14.88,77.25-3.06,1.84-7,2.65-11.72,2.65-21.1,0-52.39-16.82-85.61-47.49A481.1,481.1,0,0,0,314.55,356a475.83,475.83,0,0,0,64.82-11.21A285.9,285.9,0,0,1,384.67,374.4Zm39.24-68c-8.77,3.77-18.35,7.13-28.24,10.29a488,488,0,0,0-22.93-62.06,482.75,482.75,0,0,0,22.63-61.76c10.09,3.16,19.67,6.62,28.64,10.39,36.08,15.39,59.41,35.57,59.41,51.57S460,291.13,423.91,306.42Z" transform="translate(-6.05 -32.16)" style="fill:#61dafb"/><path d="M153.93,32.57Z" transform="translate(-6.05 -32.16)" style="fill:#61dafb"/><circle cx="249.9" cy="222.69" r="46.58" style="fill:#61dafb"/><path d="M357.46,32.27Z" transform="translate(-6.05 -32.16)" style="fill:#61dafb"/></svg>