<svg id="Layer_1" data-name="Layer 1" xmlns="http://www.w3.org/2000/svg" viewBox="0 0 493.43 369.86"><path d="M434,287.12a101.46,101.46,0,0,0-44.7,10.4c-4.58-9.14-9.22-17.18-10-23.16-.91-7-2-11.14-.87-19.46s5.91-20.09,5.84-21-1.08-5.11-11-5.19-18.45,1.92-19.45,4.54a97.22,97.22,0,0,0-4.11,14.7c-1.74,9-19.86,41.19-30.15,58-3.36-6.57-6.22-12.36-6.82-16.94-.91-7-2-11.14-.86-19.46s5.9-20.08,5.83-21-1.08-5.11-11-5.19-18.46,1.92-19.46,4.54-2.07,8.77-4.11,14.71-26.12,59.59-32.43,73.5c-3.21,7.09-6,12.78-8,16.67v0s-.13.25-.34.69c-1.69,3.31-2.69,5.14-2.69,5.14l0,.07c-1.34,2.43-2.78,4.69-3.49,4.69-.5,0-1.49-6.47.22-15.35,3.58-18.61,12.19-47.64,12.1-48.64,0-.52,1.6-5.57-5.62-8.22-7-2.57-9.52,1.72-10.16,1.73s-1.08,1.52-1.08,1.52,7.82-32.65-14.92-32.65c-14.21,0-33.91,15.55-43.61,29.65C167,294.81,153.89,302,140,309.6l-16,8.78L123,317.21C95.4,287.8,44.43,267,46.59,227.45c.79-14.38,5.79-52.23,97.94-98.15C220,91.68,280.44,102,290.89,125c14.91,32.78-32.3,93.69-110.69,102.48-29.87,3.34-45.6-8.23-49.51-12.54-4.12-4.54-4.73-4.75-6.27-3.89-2.51,1.38-.92,5.39,0,7.78,2.34,6.09,11.94,16.89,28.32,22.27,14.41,4.72,49.47,7.32,91.88-9.08,47.5-18.38,84.59-69.49,73.69-112.21C307.24,76.34,235.19,62.05,167,86.28c-40.58,14.41-84.51,37-116.09,66.58C13.36,188,7.37,218.56,9.84,231.34c8.77,45.39,71.33,75,96.38,96.86l-3.45,1.9c-12.56,6.21-60.25,31.17-72.18,57.54C17.06,417.55,32.75,439,43.13,441.91c32.18,8.95,65.19-7.15,82.94-33.62s15.57-60.91,7.43-76.64c-.1-.2-.21-.39-.32-.58l9.83-5.8c6.39-3.75,12.67-7.25,18.12-10.22-3,8.35-5.28,18.36-6.44,32.81-1.37,17,5.59,38.93,14.7,47.57,4,3.8,8.83,3.89,11.89,3.89,10.59,0,15.43-8.82,20.75-19.24,6.53-12.79,12.32-27.68,12.32-27.68s-7.27,40.21,12.54,40.21c7.22,0,14.48-9.36,17.72-14.13v.08l.56-.93c.75-1.15,1.17-1.88,1.17-1.88s0-.07,0-.2c2.9-5,9.33-16.53,19-35.47C277.84,315.61,289.8,285,289.8,285a165.1,165.1,0,0,0,4.76,19.89c2.14,7.29,6.7,15.36,10.29,23.09-2.89,4-4.67,6.31-4.67,6.31l.05.12c-2.31,3.07-4.9,6.38-7.61,9.61-9.85,11.72-21.57,25.11-23.14,29-1.85,4.55-1.41,7.9,2.16,10.59,2.61,2,7.26,2.28,12.11,2a55.3,55.3,0,0,0,18.14-4.12,61.5,61.5,0,0,0,15.59-8.2c9.65-7.1,15.47-17.25,14.91-30.7-.31-7.41-2.67-14.76-5.66-21.69q1.32-1.89,2.64-3.82a411.55,411.55,0,0,0,27-46.7,162.68,162.68,0,0,0,4.76,19.89c1.84,6.27,5.48,13.12,8.75,19.83-14.31,11.63-23.18,25.14-26.27,34-5.69,16.39-1.23,23.82,7.14,25.51,3.79.77,9.15-1,13.17-2.67a61,61,0,0,0,16.66-8.57c9.66-7.1,18.94-17,18.38-30.48a57.46,57.46,0,0,0-4.17-18c12.13-5.05,27.84-7.86,47.84-5.53,42.91,5,51.33,31.81,49.72,43s-10.61,17.37-13.62,19.24-3.92,2.5-3.67,3.89c.36,2,1.76,1.93,4.32,1.5,3.53-.6,22.54-9.12,23.35-29.82C503.78,315.75,478.6,286.88,434,287.12ZM103.22,398.63C89,414.14,69.15,420,60.63,415.06c-9.19-5.33-5.55-28.16,11.9-44.61,10.63-10,24.35-19.27,33.46-25,2.07-1.25,5.11-3.08,8.81-5.29l1-.55v0l2.2-1.32C124.3,361.74,118.14,382.36,103.22,398.63Zm103.56-70.4c-4.95,12.07-15.31,42.95-21.62,41.3-5.41-1.43-8.71-24.9-1.08-48,3.84-11.63,12-25.52,16.86-30.91,7.76-8.68,16.3-11.52,18.38-8C222,287.1,209.88,320.67,206.78,328.23Zm85.55,40.82c-2.1,1.1-4,1.79-4.91,1.26-.66-.39.86-1.84.86-1.84S299,357,303.2,351.72c2.45-3.05,5.29-6.67,8.39-10.72,0,.41,0,.81,0,1.21C311.6,356,298.28,365.31,292.33,369.05Zm65.91-15c-1.56-1.11-1.3-4.71,3.85-15.93a60.08,60.08,0,0,1,14.65-18.91,27.43,27.43,0,0,1,1.48,8.31C378.11,344.86,365.73,351.34,358.24,354Z" transform="translate(-9.36 -74.54)" style="fill:#fff"/></svg>