<svg id="Layer_1" data-name="Layer 1" xmlns="http://www.w3.org/2000/svg" viewBox="0 0 512 512"><path d="M423.64,282.07a96,96,0,0,0-42.06,9.75c-4.32-8.57-8.65-16.2-9.41-21.8-.85-6.53-1.87-10.51-.85-18.31s5.6-18.92,5.51-19.76-1-4.84-10.34-4.92-17.39,1.78-18.32,4.24a101.52,101.52,0,0,0-3.9,13.82c-1.61,8.48-18.66,38.76-28.41,54.61-3.14-6.19-5.85-11.61-6.45-15.94-.85-6.53-1.86-10.51-.85-18.32s5.6-18.91,5.52-19.76-1-4.83-10.35-4.91-17.38,1.78-18.32,4.24-2,8.22-3.9,13.82S256.92,315,251,328c-3,6.7-5.68,12-7.54,15.69h0a4.69,4.69,0,0,1-.34.68c-1.61,3.13-2.55,4.83-2.55,4.83v.08c-1.27,2.29-2.63,4.41-3.3,4.41-.51,0-1.45-6.1.16-14.41,3.4-17.56,11.45-44.86,11.37-45.8,0-.5,1.52-5.25-5.26-7.71-6.61-2.46-9,1.61-9.58,1.61s-1,1.44-1,1.44,7.38-30.7-14.08-30.7c-13.4,0-31.88,14.67-41,27.9-5.77,3.14-18.06,9.84-31.21,17.05-5,2.8-10.18,5.59-15,8.22-.34-.34-.68-.76-1-1.1-25.95-27.73-73.95-47.32-71.91-84.55.76-13.57,5.43-49.18,92.18-92.43,71.41-35.2,128.22-25.45,138.06-3.82,14.08,30.87-30.44,88.19-104.22,96.51-28.16,3.13-42.91-7.72-46.64-11.79-3.91-4.24-4.5-4.5-5.94-3.65-2.38,1.27-.85,5.09,0,7.29,2.2,5.77,11.28,15.95,26.63,20.95,13.57,4.41,46.55,6.87,86.5-8.56,44.69-17.3,79.63-65.39,69.37-105.67C304.32,83.63,236.48,70.14,172.29,93,134.12,106.52,92.74,127.89,63,155.71c-35.36,33.07-41,61.82-38.67,73.86,8.23,42.74,67.17,70.56,90.74,91.17-1.18.67-2.29,1.27-3.22,1.78-11.79,5.85-56.73,29.34-67.93,54.19-12.72,28.15,2,48.33,11.79,51.05,30.28,8.39,61.4-6.7,78.11-31.63s14.67-57.33,7-72.17a1.89,1.89,0,0,0-.34-.51c3-1.78,6.19-3.65,9.24-5.43,6-3.56,12-6.87,17.05-9.58-2.88,7.89-5,17.3-6,30.87-1.27,15.94,5.26,36.63,13.82,44.77,3.82,3.57,8.31,3.65,11.19,3.65,10,0,14.51-8.31,19.51-18.15,6.11-12,11.62-26,11.62-26s-6.87,37.82,11.79,37.82c6.78,0,13.65-8.82,16.7-13.31v.08s.17-.25.51-.85l1.1-1.78v-.17c2.72-4.75,8.82-15.52,17.9-33.41,11.7-23.07,23-51.9,23-51.9a148.15,148.15,0,0,0,4.49,18.74c2,6.87,6.28,14.42,9.67,21.71-2.71,3.82-4.41,5.94-4.41,5.94l.09.08c-2.21,2.89-4.58,6-7.21,9.08-9.25,11-20.27,23.66-21.8,27.3-1.78,4.33-1.35,7.47,2,10,2.46,1.87,6.87,2.12,11.36,1.87a52.17,52.17,0,0,0,17.05-3.91,57.43,57.43,0,0,0,14.67-7.71c9.07-6.7,14.58-16.28,14.08-28.92-.26-7-2.55-13.91-5.35-20.44.85-1.19,1.61-2.37,2.46-3.56a389,389,0,0,0,25.44-43.93,147.37,147.37,0,0,0,4.5,18.74c1.69,5.94,5.17,12.38,8.22,18.66-13.48,10.94-21.79,23.66-24.76,32-5.34,15.44-1.19,22.39,6.7,24,3.56.76,8.65-.93,12.38-2.54a56.5,56.5,0,0,0,15.69-8.06c9.07-6.7,17.81-16,17.3-28.66a54,54,0,0,0-3.9-17c11.45-4.75,26.2-7.38,45-5.18,40.37,4.75,48.34,29.94,46.81,40.54s-10,16.37-12.8,18.15-3.74,2.37-3.48,3.64c.34,1.87,1.69,1.78,4.07,1.44,3.31-.59,21.2-8.56,22-28.06,1.28-24.94-22.47-52.16-64.45-51.9Zm-311.39,105c-13.4,14.59-32.06,20.1-40.12,15.44-8.65-5-5.25-26.55,11.2-42,10-9.41,22.89-18.15,31.46-23.49,1.95-1.19,4.83-2.89,8.31-5,.59-.33.93-.5.93-.5h0l2-1.28c6,22,.25,41.47-13.82,56.82Zm97.52-66.31c-4.67,11.36-14.42,40.45-20.35,38.84-5.09-1.36-8.23-23.41-1-45.2,3.65-10.94,11.36-24,15.86-29.09,7.29-8.14,15.35-10.86,17.3-7.55,2.46,4.33-8.91,35.87-11.79,43Zm80.48,38.5c-1.95,1-3.82,1.69-4.67,1.18-.59-.34.85-1.69.85-1.69s10.09-10.86,14.08-15.78c2.29-2.88,5-6.27,7.89-10.09V334c0,13-12.56,21.7-18.15,25.27Zm62.07-14.17c-1.44-1-1.18-4.41,3.65-15a56.61,56.61,0,0,1,13.82-17.8,24.06,24.06,0,0,1,1.36,7.8c-.09,16.36-11.79,22.47-18.83,25Z" style="fill:#ff6"/></svg>