<svg id="Layer_1" data-name="Layer 1" xmlns="http://www.w3.org/2000/svg" viewBox="0 0 512 512"><polygon points="0 256 0 512 256 512 512 512 512 256 512 0 256 0 0 0 0 256" style="fill:#007acc"/><path d="M113.22,257.7l-.16,21H179.7V468h47.14V278.67h66.64V258.1c0-11.37-.24-20.88-.57-21.13s-40.8-.48-90-.4l-89.47.24Z" style="fill:#fff"/><path d="M413.13,236.22a63.73,63.73,0,0,1,32,18.44c4.72,5,11.71,14.23,12.28,16.42.16.65-22.11,15.61-35.6,24-.49.32-2.44-1.79-4.63-5-6.59-9.59-13.49-13.74-24.06-14.47-15.52-1.06-25.52,7.07-25.44,20.64a18.71,18.71,0,0,0,2.2,9.59c3.41,7.07,9.75,11.3,29.66,19.91,36.65,15.77,52.34,26.17,62.09,41,10.89,16.5,13.33,42.83,5.93,62.42-8.12,21.29-28.28,35.76-56.64,40.55-8.78,1.55-29.58,1.3-39-.4-20.56-3.66-40.07-13.82-52.09-27.15-4.72-5.2-13.9-18.77-13.33-19.75a38.25,38.25,0,0,1,4.71-3c2.28-1.3,10.89-6.26,19-11L345,399.81l3.09,4.55C352.34,411,361.77,420,367.46,423c16.33,8.62,38.77,7.4,49.82-2.51,4.71-4.31,6.66-8.78,6.66-15.36,0-5.94-.73-8.54-3.82-13-4-5.69-12.11-10.48-35.19-20.48-26.41-11.38-37.79-18.45-48.19-29.66a67.65,67.65,0,0,1-14.06-25.6c-1.95-7.23-2.44-25.36-.89-32.67,5.44-25.52,24.7-43.32,52.5-48.6C383.31,233.37,404.27,234,413.13,236.22Z" style="fill:#fff"/></svg>