<svg id="Layer_1" data-name="Layer 1" xmlns="http://www.w3.org/2000/svg" viewBox="0 0 512 512"><rect width="512" height="512" style="fill:#753e6e"/><path d="M45.39,256a210.64,210.64,0,0,0,118.7,189.55L63.62,170.28A209.93,209.93,0,0,0,45.39,256Z" style="fill:#fff"/><path d="M398.17,245.37c0-26-9.35-44.06-17.37-58.08-10.67-17.35-20.68-32-20.68-49.39,0-19.36,14.68-37.38,35.36-37.38.94,0,1.82.11,2.73.17A210.56,210.56,0,0,0,80,140.32c5,.15,9.6.25,13.56.25,22,0,56.12-2.67,56.12-2.67,11.35-.67,12.69,16,1.35,17.35,0,0-11.41,1.34-24.1,2l76.69,228.12,46.09-138.23-32.81-89.89c-11.34-.67-22.09-2-22.09-2-11.35-.67-10-18,1.34-17.35,0,0,34.77,2.67,55.47,2.67,22,0,56.12-2.67,56.12-2.67,11.36-.67,12.7,16,1.35,17.35,0,0-11.43,1.34-24.1,2l76.11,226.39,21-70.2C391.24,284.31,398.17,263.4,398.17,245.37Z" style="fill:#fff"/><path d="M259.69,274.42,196.5,458a210.79,210.79,0,0,0,129.43-3.37,18.75,18.75,0,0,1-1.5-2.89Z" style="fill:#fff"/><path d="M440.79,155a160.64,160.64,0,0,1,1.42,21.65c0,21.37-4,45.39-16,75.44L361.87,438A210.64,210.64,0,0,0,440.79,155Z" style="fill:#fff"/><path d="M256,10.5C120.63,10.5,10.5,120.63,10.5,256S120.63,501.5,256,501.5,501.5,391.38,501.5,256,391.35,10.5,256,10.5Zm0,479.74C126.84,490.24,21.75,385.16,21.75,256S126.84,21.76,256,21.76,490.23,126.84,490.23,256,385.15,490.24,256,490.24Z" style="fill:#fff"/></svg>